<svg xmlns="http://www.w3.org/2000/svg" version="1.1" xmlns:xlink="http://www.w3.org/1999/xlink" xmlns:svgjs="http://svgjs.com/svgjs" width="128" height="128"><svg xmlns="http://www.w3.org/2000/svg" width="128" height="128" xml:space="preserve">
    <path fill="#282D33" d="M106.439 82.375a1.98 1.98 0 0 1-.983-.26l-.428-.242a2 2 0 0 1 1.971-3.481l.428.242a2 2 0 0 1-.988 3.741zM119.214 89.598c-.333 0-.672-.083-.982-.259l-.715-.404a2.001 2.001 0 0 1 1.969-3.483l.715.404a2.001 2.001 0 0 1-.987 3.742zm-6.433-3.637c-.333 0-.672-.083-.982-.259l-.715-.404a2.001 2.001 0 0 1 1.969-3.483l.715.404a2.001 2.001 0 0 1-.987 3.742zM124.73 93.201a1.998 1.998 0 0 1-1.987-2.243 1.999 1.999 0 0 1 2.969-1.985l.429.242a2 2 0 0 1 .006 3.479l-.429.244a1.98 1.98 0 0 1-.988.263zM70.289 124.293a2.002 2.002 0 0 1-.993-3.738l.866-.494a2 2 0 0 1 1.983 3.475l-.866.494a1.988 1.988 0 0 1-.99.263zm7.794-4.45a2 2 0 0 1-.995-3.736l.865-.495a2 2 0 0 1 1.986 3.472l-.865.495a1.99 1.99 0 0 1-.991.264zm7.793-4.451a2.002 2.002 0 0 1-.993-3.738l.866-.494a2 2 0 1 1 1.983 3.475l-.866.494a1.988 1.988 0 0 1-.99.263zm7.793-4.452a2.002 2.002 0 0 1-.993-3.738l.866-.494a2 2 0 1 1 1.983 3.475l-.866.494a1.988 1.988 0 0 1-.99.263zm7.794-4.45a2 2 0 0 1-.995-3.736l.865-.495a2 2 0 0 1 1.986 3.472l-.865.495a1.99 1.99 0 0 1-.991.264zm7.793-4.451a2.002 2.002 0 0 1-.993-3.738l.866-.494a2 2 0 1 1 1.983 3.475l-.866.494a1.988 1.988 0 0 1-.99.263zm7.793-4.451a2.002 2.002 0 0 1-.993-3.738l.866-.494a2 2 0 1 1 1.983 3.475l-.866.494a1.988 1.988 0 0 1-.99.263zM63.798 128c-.34 0-.68-.087-.985-.26l-.428-.242a2 2 0 0 1 1.409-3.696 2 2 0 0 1 1.423 3.691l-.429.244a1.997 1.997 0 0 1-.99.263zM56.596 123.93c-.333 0-.671-.083-.982-.259l-.86-.486a2 2 0 0 1 1.969-3.483l.86.486a2.002 2.002 0 0 1-.987 3.742zm-7.741-4.377c-.333 0-.671-.083-.982-.259l-.86-.486a2 2 0 0 1 1.969-3.483l.86.486a2 2 0 0 1-.987 3.742zm-7.741-4.378c-.333 0-.671-.083-.982-.259l-.86-.486a2.002 2.002 0 0 1-.757-2.726 1.999 1.999 0 0 1 2.726-.757l.86.486a2.002 2.002 0 0 1-.987 3.742zm-7.741-4.377c-.333 0-.671-.083-.982-.259l-.86-.486a2 2 0 0 1 1.969-3.483l.86.486a2 2 0 0 1-.987 3.742zm-7.741-4.377c-.334 0-.672-.083-.984-.26l-.86-.487a2 2 0 0 1-.754-2.726 1.998 1.998 0 0 1 2.726-.755l.86.487a2 2 0 0 1-.988 3.741zm-7.741-4.378c-.333 0-.671-.083-.982-.259l-.86-.486a2 2 0 0 1 1.969-3.483l.86.486a2 2 0 0 1-.987 3.742zm-7.741-4.377c-.333 0-.671-.083-.982-.259l-.86-.486a2 2 0 1 1 1.969-3.483l.86.486a2.002 2.002 0 0 1-.987 3.742zM3.269 93.773c-.333 0-.669-.083-.979-.258l-.428-.241a2 2 0 0 1-.01-3.479l.428-.244a1.998 1.998 0 0 1 2.976 1.979 1.997 1.997 0 0 1-1.987 2.243zM9.085 89.969a2 2 0 0 1-.994-3.737l.738-.422a2 2 0 0 1 1.985 3.473l-.738.422a1.996 1.996 0 0 1-.991.264zm6.644-3.796a2 2 0 0 1-.994-3.737l.738-.422a2 2 0 1 1 1.985 3.473l-.738.422a1.996 1.996 0 0 1-.991.264zM22.162 82.499a2 2 0 0 1-.993-3.738l.428-.244a2.001 2.001 0 0 1 1.982 3.475l-.428.244a1.992 1.992 0 0 1-.989.263z"></path>
    <g>
        <path fill="#282D33" d="M63.892 67.395c-.339 0-.679-.086-.984-.259L21.997 44.001a2.001 2.001 0 0 1-.008-3.477l19.638-11.218a2 2 0 1 1 1.984 3.474l-16.583 9.472 36.858 20.842 37.135-21.21-15.18-8.583a2.001 2.001 0 0 1 1.969-3.483l18.243 10.315a2.001 2.001 0 0 1 .008 3.478l-41.177 23.52c-.307.176-.65.264-.992.264z"></path>
        <path fill="#282D33" d="M64.365 114.415a2 2 0 0 1-2-1.98l-.473-47.021a2 2 0 0 1 1.008-1.757l41.178-23.52a1.999 1.999 0 0 1 2.992 1.716l.479 47.012a2 2 0 0 1-1.008 1.757L65.356 114.15a1.977 1.977 0 0 1-.991.265zm1.539-47.866.427 42.439 37.207-21.256-.433-42.432-37.201 21.249z"></path>
        <path fill="#282D33" d="M64.365 114.415c-.339 0-.679-.086-.984-.259L22.465 91.019a2.003 2.003 0 0 1-1.016-1.722l-.468-47.016a2.002 2.002 0 0 1 2.984-1.761l40.912 23.134a1.999 1.999 0 0 1 1.015 1.72l.474 47.021a2.002 2.002 0 0 1-2.001 2.02zM25.438 88.104l36.893 20.862-.427-42.399-36.888-20.858.422 42.395z"></path>
    </g>
    <g>
        <path fill="#282D33" d="M64.067 28.585c-.339 0-.679-.086-.984-.259L41.527 16.135a2.001 2.001 0 0 1-.008-3.477L63.216.263a2.002 2.002 0 0 1 1.977-.004l21.562 12.19a2.001 2.001 0 0 1 .008 3.478L65.059 28.322c-.307.175-.65.263-.992.263zm-17.508-14.2 17.503 9.899 17.66-10.086L64.213 4.3 46.559 14.385z"></path>
        <path fill="#282D33" d="M64.318 53.363a2 2 0 0 1-2-1.979l-.251-24.778a2 2 0 0 1 1.008-1.757l21.702-12.395a1.999 1.999 0 0 1 2.992 1.717l.25 24.774a1.998 1.998 0 0 1-1.008 1.756L65.31 53.099c-.307.176-.65.264-.992.264zm1.761-25.624.204 20.197L84.008 37.81l-.204-20.194-17.725 10.123z"></path>
        <path fill="#282D33" d="M64.318 53.363c-.339 0-.679-.086-.984-.259L41.772 40.912a2 2 0 0 1-1.016-1.721l-.246-24.777a2.002 2.002 0 0 1 2.984-1.761L65.05 24.844a2 2 0 0 1 1.015 1.721l.251 24.778a1.999 1.999 0 0 1-1.998 2.02zM44.745 37.998l17.538 9.917-.204-20.156-17.533-9.916.199 20.155z"></path>
    </g>
</svg><style>@media (prefers-color-scheme: light) { :root { filter: none; } }
</style></svg>